<svg id="carnlq" class="car-detail" data-name="Layer 2" xmlns="http://www.w3.org/2000/svg" xmlns:xlink="http://www.w3.org/1999/xlink" viewBox="0 0 93.52 30.63"><defs><linearGradient id="linear-gradient" x1="-989.87" y1="-1651.1" x2="-993.1" y2="-1603.1" gradientTransform="matrix(.17 0 0 -.17 218.86 -254.88)" gradientUnits="userSpaceOnUse"><stop offset="0" stop-color="#fff"/><stop offset="1" stop-color="#252d49"/></linearGradient><linearGradient id="linear-gradient-2" x1="-1001.48" y1="-1489.12" x2="-996.04" y2="-1489.12" gradientTransform="matrix(.17 0 0 -.17 218.86 -254.88)" gradientUnits="userSpaceOnUse"><stop offset="0" stop-color="#e0ffff"/><stop offset="0" stop-color="#cbe4f7" stop-opacity=".5"/><stop offset="0" stop-color="#b6caef" stop-opacity="0"/><stop offset="0" stop-color="#303853" stop-opacity=".3"/><stop offset=".62" stop-color="#f9fbfe" stop-opacity=".03"/><stop offset=".64" stop-color="#c2d2f2" stop-opacity=".06"/><stop offset=".67" stop-color="#fff" stop-opacity="0"/><stop offset=".76" stop-color="#b6caef" stop-opacity=".08"/><stop offset="1" stop-color="#b6caef" stop-opacity=".5"/></linearGradient><linearGradient id="linear-gradient-3" x1="-996.04" y1="-1490.07" x2="-995.69" y2="-1490.07" xlink:href="#linear-gradient-2"/><linearGradient id="linear-gradient-4" x1="-1176.68" y1="-1496.89" x2="-920.17" y2="-1496.89" xlink:href="#linear-gradient-2"/><linearGradient id="linear-gradient-5" x1="-996.04" y1="-1490.07" x2="-995.69" y2="-1490.07" xlink:href="#linear-gradient-2"/><linearGradient id="linear-gradient-6" x1="-1163.74" y1="-1504.53" x2="-956.56" y2="-1504.53" gradientTransform="matrix(.17 0 0 -.17 218.86 -254.88)" gradientUnits="userSpaceOnUse"><stop offset="0" stop-color="#e0ffff"/><stop offset="0" stop-color="#cbe4f7" stop-opacity=".5"/><stop offset="0" stop-color="#b6caef" stop-opacity="0"/><stop offset="1" stop-color="#b6caef" stop-opacity=".5"/></linearGradient><linearGradient id="linear-gradient-7" x1="-1285.89" y1="-1494.52" x2="-1254.6" y2="-1485.72" gradientTransform="scale(.17 -.17) rotate(1.8 -46508.393 41642.034)" gradientUnits="userSpaceOnUse"><stop offset="0" stop-color="#fff" stop-opacity="0"/><stop offset="0" stop-color="#fff" stop-opacity=".14"/><stop offset="0" stop-color="#fff" stop-opacity=".36"/><stop offset=".02" stop-color="#fff" stop-opacity=".56"/><stop offset=".03" stop-color="#fff" stop-opacity=".72"/><stop offset=".03" stop-color="#fff" stop-opacity=".84"/><stop offset=".04" stop-color="#fff" stop-opacity=".93"/><stop offset=".05" stop-color="#fff" stop-opacity=".98"/><stop offset=".05" stop-color="#fff"/><stop offset=".13" stop-color="#fff" stop-opacity=".96"/><stop offset=".27" stop-color="#fff" stop-opacity=".87"/><stop offset=".43" stop-color="#fff" stop-opacity=".71"/><stop offset=".63" stop-color="#fff" stop-opacity=".49"/><stop offset=".84" stop-color="#fff" stop-opacity=".22"/><stop offset="1" stop-color="#fff" stop-opacity="0"/></linearGradient><linearGradient id="linear-gradient-8" x1="-854.38" y1="-1462.58" x2="-859.44" y2="-1487.75" gradientTransform="scale(.17 -.17) rotate(1.8 -46508.393 41642.034)" gradientUnits="userSpaceOnUse"><stop offset=".61" stop-color="#c0d2d7"/><stop offset=".65" stop-color="#bfd1d6" stop-opacity=".86"/><stop offset=".71" stop-color="#bcced4" stop-opacity=".6"/><stop offset=".78" stop-color="#baccd3" stop-opacity=".39"/><stop offset=".85" stop-color="#b8cad2" stop-opacity=".22"/><stop offset=".9" stop-color="#b7c9d1" stop-opacity=".1"/><stop offset=".96" stop-color="#b6c8d0" stop-opacity=".03"/><stop offset="1" stop-color="#b6c8d0" stop-opacity="0"/></linearGradient><linearGradient id="linear-gradient-9" x1="-868.83" y1="-1470.61" x2="-871.7" y2="-1487.69" xlink:href="#linear-gradient-8"/><linearGradient id="linear-gradient-10" x1="-1270.91" y1="-1519.29" x2="-1293.42" y2="-1551.27" gradientTransform="scale(.17 -.17) rotate(1.8 -46508.393 41642.034)" gradientUnits="userSpaceOnUse"><stop offset="0" stop-color="#b6c8d0"/><stop offset="0" stop-color="#91a5b5"/><stop offset="0" stop-color="#6e7b8e"/><stop offset="0" stop-color="#535e74"/><stop offset=".14" stop-color="#6c798b" stop-opacity=".75"/><stop offset=".35" stop-color="#8c9ba9" stop-opacity=".43"/><stop offset=".54" stop-color="#a3b4be" stop-opacity=".19"/><stop offset=".72" stop-color="#b1c3cb" stop-opacity=".05"/><stop offset=".85" stop-color="#b6c8d0" stop-opacity="0"/></linearGradient><linearGradient id="linear-gradient-11" x1="-1304.93" y1="-1465.9" x2="-1224.5" y2="-1461.89" gradientTransform="scale(.17 -.17) rotate(1.8 -46508.393 41642.034)" gradientUnits="userSpaceOnUse"><stop offset="0" stop-color="#b6c8d0"/><stop offset="0" stop-color="#91a5b5"/><stop offset="0" stop-color="#6e7b8e"/><stop offset="0" stop-color="#b6c8d0"/><stop offset=".17" stop-color="#b6c8d0" stop-opacity=".7"/><stop offset=".2" stop-color="#b6c8d0" stop-opacity=".65"/><stop offset=".32" stop-color="#b6c8d0" stop-opacity=".42"/><stop offset=".43" stop-color="#b6c8d0" stop-opacity=".24"/><stop offset=".54" stop-color="#b6c8d0" stop-opacity=".11"/><stop offset=".63" stop-color="#b6c8d0" stop-opacity=".03"/><stop offset=".71" stop-color="#b6c8d0" stop-opacity="0"/></linearGradient><radialGradient id="radial-gradient" cx="-1046.04" cy="-9193.45" fx="-1031.33" fy="-9010.04" r="196.66" gradientTransform="matrix(.16987 -.00676 -.0012 -.02998 219.1 -230.77)" gradientUnits="userSpaceOnUse"><stop offset="0" stop-color="#91a5b5"/><stop offset=".11" stop-color="#91a5b5" stop-opacity=".96"/><stop offset=".27" stop-color="#91a5b5" stop-opacity=".86"/><stop offset=".46" stop-color="#91a5b5" stop-opacity=".7"/><stop offset=".66" stop-color="#91a5b5" stop-opacity=".46"/><stop offset=".88" stop-color="#91a5b5" stop-opacity=".17"/><stop offset="1" stop-color="#91a5b5" stop-opacity="0"/></radialGradient><radialGradient id="radial-gradient-2" cx="-1126.35" cy="-11249.11" fx="-1111.21" fy="-11097.4" r="162.95" gradientTransform="matrix(.16896 -.01877 -.00183 -.01992 219.32 -225.35)" gradientUnits="userSpaceOnUse"><stop offset="0" stop-color="#b6c8d0"/><stop offset=".27" stop-color="#b6c8d0" stop-opacity=".66"/><stop offset=".51" stop-color="#b6c8d0" stop-opacity=".37"/><stop offset=".72" stop-color="#b6c8d0" stop-opacity=".17"/><stop offset=".89" stop-color="#b6c8d0" stop-opacity=".05"/><stop offset=".98" stop-color="#b6c8d0" stop-opacity="0"/></radialGradient><radialGradient id="radial-gradient-3" cx="-1228.74" cy="-1569.01" fx="-1228.74" fy="-1569.01" r="29.37" gradientTransform="matrix(.17 0 0 -.17 218.86 -254.88)" gradientUnits="userSpaceOnUse"><stop offset="0" stop-color="#b6c8d0"/><stop offset="0" stop-color="#9db2c1"/><stop offset="0" stop-color="#6e7b8e"/><stop offset="0" stop-color="#b6c8d0"/><stop offset="0" stop-color="#b6c8d0" stop-opacity=".7"/><stop offset=".04" stop-color="#b6c8d0" stop-opacity=".65"/><stop offset=".25" stop-color="#b6c8d0" stop-opacity=".42"/><stop offset=".45" stop-color="#b6c8d0" stop-opacity=".24"/><stop offset=".63" stop-color="#b6c8d0" stop-opacity=".11"/><stop offset=".79" stop-color="#b6c8d0" stop-opacity=".03"/><stop offset=".92" stop-color="#b6c8d0" stop-opacity="0"/></radialGradient><clipPath id="clippath"><path d="M9.4 13.32c-.64-.35-1.27-.64-1.71-.73-1.63-.34-6.92-.52-6.92-.52-.03.43-.03.87 0 1.31.02.16.04.33.07.49 0 0 .44.14.71-.05s.19-.26.54-.35c.16-.04 7.32.15 7.31 0v-.15Z" style="fill:none"/></clipPath><style>.cls-4{fill:none}.cls-10,.cls-7,.cls-9{isolation:isolate}.cls-9{opacity:.3}.cls-21,.cls-22,.cls-23,.cls-4{stroke-miterlimit:1.73;stroke-width:.04px}.cls-21,.cls-22,.cls-4{stroke:#3f485e}.cls-21{fill:#f0f0f0}.cls-22,.cls-23{fill:#151e39}.cls-23{stroke:#c0d2d7}.cls-27{fill:#b6c8d0}.cls-28{fill:#303853}.cls-29{fill:#d6373f}.cls-31{fill:#252843}.cls-32{fill:#202843}.cls-10{fill:#3b435b}.cls-7{opacity:.2}.cls-7,.cls-9{fill:#3f485e}.cls-10{opacity:.7}.cls-43{fill:url(#linear-gradient-2)}</style></defs><g id="auto"><g id="autobody"><path d="M92.83 23.39s.35.3-.34.52c-1.79.57-6.02 1.49-7.5 1.78l-.67.13h-.01s-.08 0-.13-.02h-.02s-.08-.05-.11-.08l-.02-.03c-.81-1-12.26-.26-15.47-.06h-.44c-.17.02-.3.03-.36.03h-.3c-6.03.27-12.06.46-18.09.64-7.53.23-15.06.44-22.59.63h-.5c-.07.01-.2-.03-.22-.07-.02-.06-.03-.13-.04-.19-.02-.13-.03-.25-.05-.38l-16.78-.35h-.02c-.29.07-.58.18-.84.31-.25.13-.52.2-.8.19-2.06-.29-4.1-.71-6.14-1.16a.212.212 0 0 1-.13-.1c-.12-.22-.22-.44-.31-.67 0-.02-.02-.03-.02-.05-.08-.14-.19-.76-.26-.91l92.27-2.18c.04.11.32.69.48 1 .16.33-.86.01-.59.99Z" style="fill:url(#linear-gradient)"/><path class="cls-28" d="M93.42 22.11c-.43-.53-.83-1.23-.83-1.85 0-1.13.4-2.25.49-3.39.06-.75.2-1.65.03-2.32-.03-.09-.06-.18-.1-.26 0-.01-.01-.03-.02-.04-.03-.06-.06-.12-.1-.17-.69-.97-1.9-1.58-2.93-2.3-.33-.24-1.82-1.13-2.62-1.42-6.28-2.28-12.85-2.56-19.43-2.73-1.9-.05-3.81-.08-5.71-.17-.26-.01-1.24 0-1.92 0-.39 0-.76-.14-1.06-.38.14.11.27.23.39.35l-2.76.09c-.44.01-.86-.11-1.22-.37-1.46-1.04-5.74-2.9-6.59-3.24-.66-.27-1.52-.6-2.44-.92l-.05-.02-.06-.02c-.31-.1-.62-.21-.94-.31h-.05c-1.38-.44-2.83-.78-3.95-.77 0 0-2.49-.1-3.19-.06s-3.12.07-3.63.12l-4.92.39c-2.24.2-4.45.6-6.61 1.21l-1.84.5-4.86 1.32c-.38.1-.78.1-1.16 0l-.1-.03c-1.2.45-2.4.91-3.59 1.38-1.66.64-3.32 1.28-4.98 1.93l-2.49.97c-.8.31-1.66.65-2.41.93-.17.03-.33.1-.47.19a.88.88 0 0 0-.38.36c-.14.26-.23.54-.27.83 0 .06.03.12.08.15h.03c-.02.61 0 1.27 0 1.31.09.58.1 1.18.28 1.73.33 1.01.79 1.99-.42 2.75-.04.03-.27.85-.36 1.68v.08c0 .09-.01.18-.01.26h.02c0 .18 0 .37.02.53.02.2.03.35.04.36.11.49.3 2.71.35 2.81.07.15.18.27.26.41 0 .02.02.03.02.05.09.23.19.45.31.67.03.05.08.08.13.1 2.04.44 4.08.87 6.14 1.16.28.01.56-.05.8-.19.27-.14.55-.24.84-.31h.02l16.78.35c.02.13.03.25.05.38 0 .07.02.13.04.19.01.04.14.09.22.09h.5c7.53-.22 15.06-.43 22.59-.64 6.03-.18 12.06-.38 18.09-.63h.3c.06-.01.18-.02.36-.03h.2l.08-.01h.15c3.21-.21 14.66-.94 15.47.06l.02.03s.07.06.11.07h.02s.08.02.13.02h.01l.67-.13c2.43-.46 4.86-.93 7.29-1.41.13-.03.35-.23.33-.27-.36-.87.44-.66.78-.88.2-.11.15-.36.03-.51ZM30.12 8.34c-.62.01-1.06.02-1.29.02h-.07c-1.82-.11-9.14-1.98-10.99-2.27-.11-.02-.28-.15-.27-.21.02-.12 3.93-1.32 5.59-1.67 2.06-.44 3.98-.78 5.84-1.02 2.98-.38 5.97-.6 8.97-.66 4.21-.11 6.69.46 10.31 2.13.98.45 5.14 2.94 5.14 2.94s-17.91.62-23.22.74Z"/><path id="backwheel-cover" class="cls-32" d="m26.08 25.79-16.81-.35c-.17-.11-.63-6.55 1.5-8.55 2.7-2.55 5.93-3.25 9.51-2 2.17.76 3.95 2.18 4.74 4.26.02.04.03.09.05.14s.05.15.08.24c.13.46.24.92.32 1.38l.06.33c.36 2.06.55 4.54.55 4.54Z"/><path id="frontwheel-cover" class="cls-32" d="M84.36 25.31h-.08c-.07 0-.14-.04-.19-.1a.196.196 0 0 0-.09-.09c-1.21-.82-11.74-.23-15.84.03-.33-.55-.2-5.02 1.21-7.41 2.02-3.42 6.23-4.61 9.8-3.34 2.17.78 3.95 2.21 4.74 4.32.46 1.21.92 4.64.46 6.59Z"/><path id="backwheel-top" class="cls-7" d="M26.81 26.45h-.5c-.07.01-.2-.03-.22-.07s-.03-.13-.04-.19v-.36s-.2-2.48-.56-4.55l-.06-.33c-.1-.51-.2-.98-.32-1.38-.02-.08-.05-.16-.08-.24-.02-.05-.03-.1-.05-.14-.59-1.57-1.75-2.76-3.22-3.58h-.02c-.48-.28-.98-.5-1.5-.68-3.57-1.26-6.81-.55-9.52 2-2.06 1.95-1.69 8.07-1.51 8.53h-.02c-.29.07-.58.18-.84.31-.19-.6-.48-7.56 1.75-9.68 2.94-2.78 6.47-3.55 10.37-2.18 2.37.83 4.31 2.38 5.17 4.65.02.05.04.1.06.16.03.08.06.17.08.26.14.49.26.99.35 1.5.02.12.05.24.07.36.32 1.74.53 4.46.62 5.62Z"/><path id="frontwheel-top" class="cls-7" d="m85.01 25.18-.67.13h-.01c.46-1.93.01-5.48-.44-6.67-.79-2.08-2.57-3.5-4.74-4.26-3.57-1.26-7.78-.08-9.8 3.3-1.38 2.3-1.5 6.75-1.2 7.47l-.36.02h-.3c-.3-.87-.13-5.43 1.33-7.87 2.18-3.63 6.71-4.9 10.55-3.55 2.34.82 4.25 2.35 5.11 4.59.47 1.25.95 4.74.53 6.84Z"/><path id="autobody-2" d="M.77 12.14c-.01-.32.02-1.09.49-1.32 0 0 5.46-1.32 7.29-1.71 2.64-.56 7.38-1.14 9.24-1.18 3.17-.07 10.77.53 10.77.53.08 0 .17-.01.26-.02h.01c2.23 0 24.51-.76 24.51-.76l6.31-.2c.16.08 2.21.02 2.6.04 1.9.1 3.81.12 5.71.17 6.58.17 13.15.44 19.43 2.73.8.29 2.28 1.18 2.61 1.42 1.02.72 2.24 1.33 2.93 2.3.1.14.17.31.21.48l-11.38.35c-.74-.5-1.54-.91-2.38-1.2-2.07-.73-4.32-.7-6.37.07 0 0-1.61-.52-2.3-.65-.78-.16-2.03-.17-2.82-.24.08-.07-38.12.59-38.12.59-1.85.04-3.69.32-5.46.85l-1.8.54c-.66-.41-1.36-.74-2.09-1-3.19-1.12-6.14-.81-8.73.87L.77 12.14Z" style="fill:url(#radial-gradient)"/><path id="handl" d="m31.1 11.94 2.72-.09c.25 0 .46.19.47.44 0 .25-.19.46-.44.47l-2.72.09c-.25 0-.46-.19-.47-.44 0-.25.19-.46.44-.47Z" style="stroke-miterlimit:1.73;stroke-width:.17px;stroke:#252d49;fill:none"/><path d="M64.12 8.78S36.45 9.84 27.96 11.2s-16.32 1.75-19.21.89S0 11.21 0 11.21s14.49-4.78 25.15-3.16c6.5.99 31.38.03 33.49.23l5.49.51Z" style="fill:url(#radial-gradient-2)"/><g id="fulltopglass"><path class="cls-43" d="M45.57 2.62c.44.13.78.25.94.31-.31-.1-.62-.21-.94-.31Z"/><path d="m46.57 2.95-.06-.02.06.02Z" style="fill:url(#linear-gradient-3)"/><path d="M59.24 7.07h-.01L59.16 7l-.07-.06c-.07-.06-.15-.11-.22-.17l-.13-.09c-.12-.09-.25-.17-.39-.27l-.17-.12c-.23-.15-.48-.3-.73-.45l-.16-.09c-.59-.35-1.23-.68-1.89-1.01l-.36-.17c-.79-.38-1.61-.75-2.39-1.09l-.35-.15c-.96-.4-1.87-.76-2.64-1.05l-.09-.03-.22-.08a17.23 17.23 0 0 0-3.15-.92h-.08l-.04-.01c-.98-.18-1.96-.31-2.96-.38h-.2c-1.19-.1-2.33-.13-4-.12h-.36c-.52 0-1.07.01-1.7.03-1.02.02-1.95.05-2.79.1h-.1c-1.48.07-2.85.19-4.1.35l-.2.03-.35.05-.2.03-.13.02c-.52.08-1.03.16-1.5.24-2.08.27-4.15.94-6.17 1.54-2.06.62-4.05 1.44-6.06 2.21l.1.03c.38.1.78.1 1.16 0l4.86-1.34 1.86-.5c2.16-.61 4.37-1.01 6.61-1.21l4.92-.39c.51-.05 2.94-.08 3.63-.12s3.19.06 3.19.06c1.34.04 2.92.45 3.95.76h.05c.44.15.78.26.94.32l.06.02.05.02c.92.32 1.78.65 2.44.92.85.35 5.13 2.21 6.59 3.24.36.25.79.38 1.22.37l2.76-.09a6.52 6.52 0 0 0-.4-.34Z" style="fill:url(#linear-gradient-4)"/><path class="cls-43" d="M45.57 2.62c.44.13.78.25.94.31-.31-.1-.62-.21-.94-.31Z"/><path d="m46.57 2.95-.06-.02.06.02Z" style="fill:url(#linear-gradient-5)"/></g><path d="M53.34 7.6s-17.91.62-23.22.74c-.62.01-1.06.02-1.29.02h-.07c-1.82-.11-9.14-1.98-10.99-2.27-.11-.02-.28-.15-.27-.21.02-.12 3.93-1.32 5.59-1.67 2.06-.44 3.98-.78 5.84-1.02 2.98-.38 5.97-.6 8.97-.66 4.21-.11 6.69.46 10.31 2.13.98.45 5.14 2.94 5.14 2.94Z" style="stroke-width:.17px;stroke:#252d49;fill:url(#linear-gradient-6);stroke-miterlimit:1.73"/><path d="M11.39 10.05s-.58.57-.15 1.21c.33.48.95.51 1.18.48.1-.01 1.18-.21 1.64-.87.44-.62.1-1.07-.31-1.24-.81-.25-1.69-.1-2.36.42Z" style="fill:#303853;stroke-width:.17px;stroke:#252d49;stroke-miterlimit:1.73"/><path class="cls-10" d="m.5 22.03 1.95.54.27.31-2.17-.34-.05-.51zM.7 23.67l2.26-.22s.18-.02.13-.09-.27-.33-.27-.33l-2.19.35c.01.1.03.19.06.29Z"/><path id="back-light" d="M8.26 25.25c-.06.01-6.92-.54-6.92-.54-.03 0-.06 0-.08-.02-.12-.23-.23-.47-.33-.71 0-.08.02-.15.08-.21.05-.08.67-.13.68-.13.52.03 1.48.31 1.54.22S.73 20.95.31 20.39H.3a8.72 8.72 0 0 1-.02-.53c0-.09 0-.17.01-.26v-.02c.53.48 3.57 3.52 5.5 4.99.26.2 1.92.33 2.46.48v.2Z" style="opacity:.7;fill:#252d49;isolation:isolate"/><path d="M.3 20.4s3.21 3.02 3.01 3.47-2.33.16-2.33.16c-.14-.12-.24-.28-.31-.45C.64 23.38.3 20.4.3 20.4Z" style="fill:#6e7b8e"/><path class="cls-28" d="m8.26 25.25.09.51c-.2.09-.41.16-.63.19-.2 0-2.32-.35-2.66-.41s-3.63-.73-3.68-.75a.256.256 0 0 1-.13-.1c-.02-.04 7 .56 7 .56Z"/><path d="m.53 22.15 1.83.45a.4.4 0 0 1 .22.14l.38.48c.04.05.04.13-.02.18-.02.02-.04.02-.07.03-.61.05-2.19.21-2.21.16-.05-.21-.08-.42-.09-.63-.02-.18-.07-.63-.08-.76 0-.01 0-.03.02-.03Z" style="opacity:.8;fill:#f0f0f0;isolation:isolate"/><path d="M59.98 14.93s.17.53.56.6 4.53-.21 5.45-.6c.23-.1 1.55-.98 1.57-1.28l-7.58 1.28Z" style="fill:#8697a8"/><path id="black-piece" d="M67.45 13.64c.16 0 .16.04.09.11-.31.29-1.2 1.06-1.99 1.21-1.82.35-5 .44-5.37.3-.06-.03-.36-.37-.35-1.21 0-.13.1-.24.24-.26 1.04-.03 4.07-.08 5.98-.12.95-.03 1.24-.03 1.4-.03Z" style="opacity:.8;fill:#3f485e;isolation:isolate"/><path id="black-piece-2" class="cls-28" d="m67.42 13.87.13-.12c.07-.07.07-.11-.09-.11s-.46 0-1.4.03c-1.9.04-4.95.08-5.98.12-.13.01-.24.12-.24.26 0 .11.03.45.04.54 0 0 .13-.49.46-.54s7.08-.18 7.08-.18Z"/><path class="cls-31" d="M30.33 8.34h-.25L28.42 3.8s-.03-.09-.05-.13c-.1-.12-.62-.04-.62-.04s-3.06.45-4.77.86c-.9.21-2.39.69-3.54 1.04-.98.3-1 .52-.73.64.23.12.47.21.73.26-.87-.18-1.25-.25-1.67-.33-.11-.02-.33-.17-.32-.24.02-.12 3.94-1.33 5.61-1.69 1.89-.41 3.66-.72 5.36-.96l.15.39.07.17 1.71 4.58Z"/><path class="cls-31" d="m53.33 7.61-.71.02-4.07-2.36c-.92-.5-1.87-.93-2.86-1.29-1.34-.45-2.64-.74-2.64-.74-.75-.15-1.5-.26-2.26-.33-.52-.04-3.29-.15-5.85-.01-2.81.15-6.04.58-6.04.58s-.39.04-.29.31l-.07-.17-.15-.39.5-.07c2.98-.38 5.97-.6 8.97-.66 4.21-.11 6.69.47 10.31 2.15.98.45 5.14 2.97 5.14 2.97Z"/><path d="m49.32 2.17-2.7.8-.05-.02-.06-.02c-.16-.06-.5-.17-.94-.31h-.05c-1.04-.33-2.62-.73-3.95-.77 0 0-2.49-.1-3.19-.06s-3.12.07-3.63.12l-4.92.39c-2.24.2-4.45.6-6.61 1.21l-1.85.51.9-1.18s1.94-.79 5.2-1.27l.31-.05-.8.5c.2.03.4.03.6 0 .98-.09 5.16-.76 7.66-.81.73-.01 1.5-.02 2.27-.01-.02 0-.02 0 0 0l1.4-.48h.74s.04.04.02.04l-1.06.46c1.81.03 3.44.11 4.1.17.58.06 1.52.26 2.06.38.27.06.55 0 .79-.14l.6-.39c1.08.21 2.14.52 3.15.93Z" style="opacity:.9;fill:#252d49;isolation:isolate"/><path id="back-2" d="M11.84 14.72c-.6.39-1.16.83-1.68 1.31-.55.51-1.61 2.68-1.8 5.06l-7.7-3.25c1.23-.76.76-1.74.43-2.75-.18-.55-.21-1.14-.3-1.72-.03-.43-.03-.87 0-1.31 0 0 5.36.18 7.01.52 1.25.26 4.05 2.14 4.05 2.14Z" style="fill:#3b435b"/><path id="back-3" d="M11.84 14.74c-.6.39-1.16.83-1.68 1.31-.55.51-1.61 2.68-1.8 5.06l-7.7-3.25c1.23-.76.76-1.74.43-2.75-.18-.55-.21-1.14-.3-1.72-.03-.43-.03-.87 0-1.31 0 0 5.36.19 7.01.52 1.25.26 4.05 2.14 4.05 2.14Z" style="fill:url(#radial-gradient-3)"/><path class="cls-28" d="m1.96 14.41-.67.03s.36 1.46.85 2.28c.52.87 5.02 2.6 5.43 2.39s.19-.32.25-.61.2-.92.27-1.44-.3-1.67-2.12-2.17-2.64-.98-3.14-1.02-.7.3-.88.54Z"/><g style="clip-path:url(#clippath)"><path id="back-4" class="cls-29" d="M9.4 13.32c-.64-.35-1.27-.64-1.71-.73-1.63-.34-6.92-.52-6.92-.52-.03.43-.03.87 0 1.31.02.16.04.33.07.49 0 0 .44.14.71-.05s.19-.26.54-.35c.16-.04 7.32.15 7.31 0v-.15Z"/><path id="back-5" d="M9.42 13.33c-.4.11-7.17.02-7.33.06-.35.09-.27.16-.54.35-.18.11-.4.12-.59.04a7.22 7.22 0 0 0-.07-.49" style="stroke:#ea546a;stroke-width:.69px;stroke-miterlimit:1.73;fill:none"/><path id="back-6" class="cls-29" d="M4.01 12.22c-.88-.05-1.72-.09-2.33-.12"/><path id="back-7" d="M.77 12.07c-.02.3-.03.61-.02.85 0 0 .69.07.92-.03.19-.07.38-.1.58-.11.03 0 .06 0 .08.03.04.03.05.08.05.12 0 .1 3.04.11 3.04.11-.21-.46-.65-.76-1.15-.8-1.7-.12-3.5-.17-3.5-.17Z" style="fill:#6b152e;opacity:.5;isolation:isolate"/><path id="back-8" d="M4.22 13.56c2.16.03 5.19.01 5.19-.09v-.15c-.64-.35-1.27-.64-1.71-.73-.74-.15-2.45-.29-3.87-.38l.39 1.35Z" style="opacity:.3;isolation:isolate;fill:url(#linear-gradient-7)"/><path id="back-9" d="M1.66 13.73c-.33.33-.82.13-.82.13-.02-.16-.04-.33-.07-.49-.03-.43-.03-.87 0-1.31l1.03.04-.14 1.63Z" style="fill:#fff;opacity:.3;isolation:isolate"/></g><path d="M62.88 7.49s10.25.28 13.25.79 5.36 1.04 5.36 1.04l2.14-.08c1.21.27 2.39.62 3.55 1.06.78.32 1.54.71 2.26 1.16 1.17.72 2.28 1.54 3.31 2.46" style="fill:url(#linear-gradient-8)"/><path d="M60.42 8.44s10.39-.06 17.53.88 12.73 3.03 13.09 3.44" style="fill:url(#linear-gradient-9)"/><path class="cls-28" d="M31.11 23.46a.288.288 0 0 1-.27-.32c0-.08.04-.15.1-.2.74-.62 1.9-1.58 2.21-1.69 5.38-1.96 20.89.67 25.94 1.61.09.04.13.14.09.23-.02.05-.06.08-.11.1l-27.95.28Z"/><g style="opacity:.7"><path d="M31.11 23.46a.288.288 0 0 1-.27-.32c0-.08.04-.15.1-.2.74-.62 1.9-1.58 2.21-1.69 5.38-1.96 20.89.67 25.94 1.61.09.04.13.14.09.23-.02.05-.06.08-.11.1l-27.95.28Z" style="fill:#91a5b5"/></g><path class="cls-32" d="M29.76 8.8c-.4.43-.68.95-.83 1.51-.16.56-.21 1.14-.16 1.72.06.58.18 1.14.36 1.7.17.55.37 1.1.59 1.64.43 1.08.93 2.13 1.49 3.15.28.51.58 1 .91 1.48.16.23.33.45.52.66.2.2.41.38.64.53.22.16.47.28.73.36.27.08.55.14.83.17l.22.03c.07.01.15.02.21.03.13.02.28.02.42.03.29.02.58.02.87.03 1.17.03 2.33.03 3.5.04l3.51.02c1.17 0 2.34 0 3.51.03 2.33.04 4.67.03 7.01.05h1.75l.88.01c.5.02.95-.32 1.06-.81.06-.26.11-.57.16-.85.1-.57.19-1.15.26-1.73.16-1.15.25-2.31.28-3.47.03-1.16-.11-2.31-.42-3.43-.15-.56-.34-1.11-.57-1.64-.12-.26-.24-.52-.38-.78-.07-.13-.14-.25-.21-.38l-.11-.19-.06-.1v-.03s-.03-.02-.01-.02l-.02-.02c-.12-.07-.25-.13-.38-.17-.14-.05-.28-.09-.42-.13L55.06 8c-.56-.15-1.13-.29-1.7-.43.57.11 1.15.22 1.72.35.29.07.57.13.85.21l.42.12c.15.04.29.1.42.17.02.01.04.03.06.06l.03.05.06.09.12.19c.08.12.15.25.23.38a11.484 11.484 0 0 1 1.54 5.93c0 1.18-.07 2.35-.2 3.52-.06.58-.14 1.17-.23 1.75-.05.3-.09.57-.15.88a1.512 1.512 0 0 1-1.5 1.17H54.1c-2.34 0-4.67.01-7.02-.02s-4.67-.04-7.01-.08c-1.17-.02-2.34-.04-3.51-.08-.29-.01-.58-.02-.88-.04-.15-.01-.29-.02-.45-.04-.08-.01-.15-.02-.22-.04l-.22-.04c-.3-.04-.6-.11-.89-.2-.3-.1-.57-.25-.83-.43-.12-.09-.24-.18-.36-.28-.06-.05-.11-.1-.17-.15s-.11-.11-.17-.17c-.2-.23-.38-.46-.55-.72-.33-.49-.62-1-.89-1.53a28.93 28.93 0 0 1-1.43-3.22c-.2-.55-.39-1.11-.54-1.68-.16-.56-.26-1.14-.3-1.73-.03-.59.04-1.18.22-1.75.18-.56.49-1.07.9-1.48Z"/><path d="M59.9 7.4s-.4-.49-.59-.57-3.18.56-3.18.56.2.15.81.17 2.96-.16 2.96-.16Z" style="fill:#252d49"/><path d="M82.83 13.1s0-.06.03-.07h.03c.85.06 7.76.52 8.21 1.32.19.33-3.76-.08-4.7-.1-1.51-.03-3.05.21-3.57-1.14Z" style="fill:#c8dbdf;opacity:.8;isolation:isolate"/><path d="M91.1 14.34c-.45-.79-7.35-1.26-8.21-1.32-.03 0-.06.02-.06.05v.02c.07.2.18.38.32.53 0 0-.17-.3 0-.33.38-.06 4.37.17 6.44.56 1.29.25 1.51.47 1.51.47Z" style="opacity:.8;fill:#252d49;isolation:isolate"/><path class="cls-9" d="M93.18 15.78c-.8.87-8.39.79-5.98.93s3.08 2.09 3.08 2.09l.44 1.87-2.56 1.15 1.65-.15c.11-.01 1.04-.16 1.63-.27.31-.05.61-.14.9-.26l.4-.16c-.11-.29-.16-.59-.15-.9.07-.8.2-1.6.37-2.39.13-.63.2-1.27.21-1.92Z"/><path id="front-light" d="M86.82 21.59c-.3-.09-.56-.71-.66-1.14-.21-.91-.32-1.85-.45-2.78-.19-1.34.39-1.21.54-1.22.7.03 3.33.07 4.08.99.38.41.67.9.85 1.43.23.76.84 2.27.11 2.47-.21.06-3.77.79-4.47.25Z" style="opacity:.9;fill:#2b334e;isolation:isolate"/><path class="cls-32" d="M90.78 18.31s-.32-.59-.69-.8-2.63-.6-2.75-.46c-.3.38.37 3.33.71 3.71.31.35 3.31.26 3.38.01.11-.42-.29-1.8-.64-2.47Z"/><path d="m.28 19.52 5.52 5.05 2.47.68-.02-2.29c0-.17 0-.34.02-.51l.1-1.36-7.71-3.25-.39 1.68Z" style="fill:url(#linear-gradient-10)"/><path id="front-shadow" class="cls-28" d="M85.93 23.8c-.08 0-.15-.02-.22-.04.06-.05.12-.13.19-.14 2.08-.44 4.16-.87 6.24-1.3.11-.02.23-.03.35-.03.21 0 .69-.08.75.12s-.44.17-.63.24c-.59.2-1.19.37-1.78.54 0 .04-3.26.46-4.89.61Z"/><path class="cls-9" d="M85.93 23.8s-.01.11.89.11c1.6-.04 3.2-.19 4.79-.47 1.05-.17 1 .06 1 .06s-.2-.43 0-.6c.14-.09.29-.15.45-.16.07 0 .19-.19.17-.28s-7.31 1.34-7.31 1.34Z"/><path id="black-piece-3" class="cls-32" d="M67.45 13.64c.16 0 .16.04.09.11-.31.29-1.2 1.06-1.99 1.21-1.82.35-4.46.23-5.26.31-.15.02-.47-.39-.45-1.23a.37.37 0 0 1 .24-.26c1.04-.02 4.07-.08 5.98-.12.94-.02 1.23-.03 1.4-.03Z"/><path style="stroke:#535e74;stroke-width:.04px;stroke-miterlimit:1.73;fill:none" d="M29.7.04 29.69 0"/><path d="M1.11 10.86c.19-.16.42-.27.67-.33l12.94-5.02 4.66 2.04-18.27 3.31" style="fill:url(#linear-gradient-11)"/><path class="cls-32" d="M1.11 10.86c2.12-.58 4.25-1.09 6.4-1.53 1.07-.23 2.16-.42 3.24-.61s2.17-.35 3.26-.5c.55-.07 1.09-.14 1.64-.19s1.1-.11 1.65-.15c1.1-.07 2.2-.13 3.3-.14 2.2-.06 4.4.08 6.58.4-1.09-.08-2.19-.11-3.29-.09-1.1 0-2.19.04-3.29.09-2.19.11-4.36.3-6.53.6s-4.33.64-6.49 1l-3.24.56c-1.06.19-2.14.38-3.22.57Z"/></g><g id="front-wheel" class="car-wheel"><path class="cls-22" d="M84.11 22.13c.13 4.27-3.22 7.84-7.49 7.97-4.27.13-7.84-3.22-7.97-7.49-.13-4.27 3.22-7.84 7.49-7.97 4.27-.13 7.84 3.22 7.97 7.48Z"/><circle class="cls-4" cx="76.38" cy="22.38" r="7.04"/><circle class="cls-21" cx="76.38" cy="22.38" r="5.15"/><path id="front-tire" class="cls-23" d="M81.04 17.39c-.27-.24-.57-.46-.88-.65l.07.75c.16.07.31.17.45.28.13.13.23.28.32.44l.75.03c-.21-.3-.45-.58-.7-.84Zm-.89-.66s-.04-.01-.06 0c-.08.05-.15.11-.22.17l-.02.02c-.42.38-1.75 2.42-2.78 4.07-.02.03-.01.07.01.09l.48-.27s0-.02.02-.03c.33-.45 1.97-2.7 2.4-3.11h.01c.05-.07.11-.12.17-.16l.06-.03-.07-.74Zm-2.6 4.08-.47.26.52.48.24-.49-.29-.25Zm4.19-2.58-.75-.03s0 .05-.02.06c-.04.06-.09.13-.14.19h-.01c-.38.46-2.53 2.25-2.96 2.61 0 0-.02.01-.03.02l-.24.49s.06.03.09 0c1.59-1.13 3.54-2.6 3.89-3.03l.02-.02c.06-.07.11-.15.15-.23.02-.02.02-.05 0-.07Zm.21.14c-.94.89-3.68 2.99-4.22 3.37-.07.04-.15.04-.21-.01l-.6-.56a.168.168 0 0 1-.03-.21c.35-.56 2.28-3.43 3.1-4.42.01-.02.04-.02.05-.01.13.09.27.17.4.27l.09.07c.13.1.25.2.38.31.03.03.06.05.09.08l.09.08c.07.07.15.14.22.21.03.03.07.07.1.11l.26.29c.09.1.13.16.19.24l.05.07.04.06s.01.04 0 .05Zm-.21-.13c-.21-.3-.45-.58-.71-.84-.27-.24-.57-.46-.88-.65s-.04-.01-.06 0c-.08.05-.15.11-.22.17l-.02.02c-.42.38-1.75 2.42-2.78 4.07-.02.03-.01.07.01.09l.52.48s.06.03.09 0c1.59-1.13 3.54-2.6 3.89-3.03l.02-.02c.06-.07.11-.15.15-.23.01-.02.01-.05 0-.07Zm-1.07-.45c-.14-.11-.29-.21-.45-.28s-.04.01-.06.03c-.06.05-.12.1-.17.15h-.01c-.43.42-2.08 2.68-2.4 3.13 0 0-.01.02-.02.03l.28.26s.02 0 .03-.02c.43-.35 2.57-2.14 2.96-2.6h.01c.05-.07.1-.13.14-.2.01-.02.02-.04.02-.06-.09-.17-.2-.32-.33-.45Zm-9.29-.04c-.24.28-.46.57-.65.89l.75-.07c.07-.16.17-.31.28-.45.13-.13.28-.24.44-.33l.03-.75c-.3.21-.58.44-.84.7Zm-.65.89s-.01.04 0 .06c.05.08.11.15.17.22l.02.02c.38.42 2.42 1.76 4.07 2.79.03.02.07.01.09-.01l-.27-.47s-.02 0-.03-.02c-.45-.33-2.7-1.97-3.11-2.4h-.01c-.05-.07-.11-.12-.15-.19l-.03-.06-.74.07Zm4.08 2.6.27.48.48-.52-.49-.24-.26.28Zm-2.58-4.19-.03.75s.05 0 .06.02c.06.04.13.09.19.14h.01c.45.39 2.24 2.54 2.6 2.97 0 0 .01.02.02.03l.49.24s.02-.06 0-.09c-1.13-1.59-2.6-3.54-3.03-3.89l-.02-.02c-.07-.06-.15-.11-.23-.15a.064.064 0 0 0-.06 0Zm.13-.21c.89.94 2.99 3.68 3.38 4.23.04.07.04.15-.02.21l-.56.6c-.06.06-.14.07-.21.03-.56-.35-3.43-2.28-4.42-3.1-.02-.01-.02-.04-.01-.05.09-.13.17-.27.27-.4a10.346 10.346 0 0 1 .37-.46l.08-.09.08-.09c.07-.07.14-.15.21-.22l.11-.1.29-.26c.1-.09.16-.13.24-.19.02-.02.05-.04.07-.05l.06-.04s.04-.02.06 0Zm-.13.21c-.3.21-.58.45-.84.71-.24.28-.46.57-.65.89s-.01.04 0 .06c.05.08.11.15.17.22l.02.02c.38.42 2.42 1.76 4.07 2.79.03.02.07.01.09-.01l.48-.52s.02-.06 0-.09c-1.13-1.59-2.6-3.54-3.03-3.89l-.02-.02c-.07-.06-.15-.11-.23-.15h-.06Zm-.46 1.07c-.11.14-.21.3-.28.46s.01.04.03.06c.05.06.1.12.15.17h.01c.41.44 2.66 2.09 3.11 2.41 0 0 .02.01.03.02l.26-.28s0-.02-.02-.03c-.35-.43-2.14-2.57-2.6-2.96h-.01a.896.896 0 0 0-.19-.15c-.02-.01-.04-.02-.06-.02-.16.09-.31.19-.44.32Zm4.38-2.52c-.37.02-.73.08-1.09.17l.58.47c.17-.06.34-.1.52-.12h.01c.18 0 .36.03.53.08l.55-.51a5.78 5.78 0 0 0-1.1-.11Zm-1.09.18s-.03.02-.04.04c-.02.09-.03.18-.03.27v.02c-.03.57.47 2.95.91 4.84 0 .03.04.06.07.06l.14-.53s0-.02-.01-.03c-.09-.55-.52-3.31-.5-3.9v-.02c0-.08 0-.15.02-.23 0-.02.01-.04.02-.06l-.58-.47Zm1.05 4.72-.14.53.7-.02-.17-.52h-.39Zm1.14-4.77-.55.51s.03.04.03.06c.02.08.03.15.03.23v.02c.05.59-.21 3.37-.26 3.92 0 .01 0 .02-.01.03l.17.52s.06-.03.07-.06c.32-1.92.67-4.33.6-4.9v-.02c0-.09-.03-.18-.05-.27 0-.04-.02-.06-.04-.06v.02Zm.24-.05c-.04 1.29-.49 4.72-.6 5.36-.01.08-.08.14-.16.14l-.82.03c-.08 0-.15-.05-.17-.13-.15-.64-.81-4.04-.93-5.32 0-.02.01-.04.03-.05l.47-.09h.11c.16-.04.32-.05.48-.06h.69c.13 0 .26.01.39.02s.21.02.31.03h.09l.07.02s.04 0 .05.02v.02Zm-.24.05c-.36-.06-.73-.1-1.1-.1-.37.02-.73.08-1.09.17s-.03.02-.04.04c-.02.09-.03.18-.03.27v.02c-.03.57.47 2.95.91 4.84 0 .03.04.06.07.06l.7-.02s.06-.03.07-.06c.32-1.92.67-4.33.6-4.9v-.02c0-.09-.03-.18-.05-.27-.02-.05-.03-.06-.05-.06v.02Zm-1.08.43h-.01c-.18.02-.35.05-.52.12s-.02.04-.02.06c-.01.08-.02.15-.02.23v.02c-.01.59.42 3.35.5 3.9 0 .01 0 .02.01.03h.38s0-.03.01-.04c.05-.55.31-3.33.26-3.92v-.02c0-.08-.02-.15-.03-.23 0-.02-.01-.04-.03-.06-.17-.06-.35-.09-.53-.1v.02Zm-6.6 6.54c.02.37.08.73.16 1.09l.48-.58c-.06-.17-.1-.34-.12-.52 0-.19.04-.38.09-.55l-.52-.55c-.06.36-.09.73-.09 1.1v.02Zm.17 1.1s.02.03.04.04c.09.02.18.03.27.03h.03c.56.03 2.95-.47 4.84-.91.03 0 .06-.04.06-.07l-.53-.14s-.02 0-.03.01c-.55.09-3.3.52-3.9.5h-.02c-.08 0-.15 0-.23-.02-.02 0-.04-.01-.06-.02l-.47.58Zm4.72-1.05.53.14-.02-.7-.52.17v.39Zm-4.78-1.15.52.55s.04-.03.06-.03c.08-.02.15-.03.23-.03h.02c.59-.05 3.37.21 3.92.26h.03l.52-.16c0-.03-.03-.06-.06-.07-1.92-.32-4.33-.67-4.9-.6H70c-.09 0-.18.03-.27.05-.02 0-.04.02-.05.04Zm-.05-.24c1.29.04 4.72.49 5.36.6.08.02.13.08.14.16l.03.82c0 .08-.05.15-.13.17-.64.15-4.03.81-5.32.93-.02 0-.04-.01-.04-.03l-.09-.47c0-.04-.01-.07-.02-.11-.02-.16-.04-.32-.05-.48v-.69c0-.13.01-.26.02-.39s.02-.21.03-.31c0-.03 0-.06.01-.09s0-.05 0-.07.02-.05.04-.05Zm.05.24c-.06.36-.1.73-.1 1.1.02.37.08.73.16 1.09s.02.03.04.04c.09.02.18.03.27.03h.03c.56.03 2.95-.47 4.84-.91.03 0 .06-.04.06-.07l-.02-.7s-.03-.06-.06-.07c-1.92-.32-4.33-.67-4.9-.6h-.02c-.09 0-.18.03-.27.05-.02 0-.04.03-.04.05Zm.43 1.08c.01.19.05.36.12.53s.04.02.06.02c.08.01.15.02.23.02h.02c.59.01 3.35-.42 3.9-.5.01 0 .02 0 .03-.01v-.39h-.04c-.55-.05-3.33-.31-3.92-.26h-.02c-.08 0-.15.02-.23.03-.02 0-.05.01-.06.03-.05.17-.08.35-.08.53Zm1.64 4.77c.28.24.57.46.89.65l-.07-.75c-.16-.07-.31-.17-.45-.28-.13-.13-.23-.28-.32-.44l-.75-.03c.21.3.45.58.71.84Zm.89.66s.04.01.06 0c.08-.05.15-.11.22-.17l.02-.02c.42-.38 1.75-2.42 2.78-4.07.02-.03.01-.07-.01-.09l-.48.27s0 .02-.02.03c-.33.45-1.97 2.7-2.4 3.11h-.01c-.05.07-.11.12-.17.17l-.06.03.07.74Zm2.6-4.08.48-.27-.52-.48-.24.49.29.26Zm-4.19 2.58.75.03s0-.05.02-.07c.04-.06.09-.13.14-.18h.01c.38-.47 2.53-2.25 2.95-2.61 0 0 .02-.01.03-.02l.24-.49s-.06-.02-.09 0c-1.59 1.13-3.54 2.6-3.89 3.03l-.02.02c-.06.07-.11.15-.15.23-.01.02-.01.04 0 .06Zm-.21-.13c.94-.89 3.68-2.99 4.22-3.38.07-.04.15-.04.21.01l.6.56c.06.06.07.14.03.21-.35.56-2.28 3.43-3.1 4.42-.01.02-.04.02-.05.01-.13-.08-.27-.17-.4-.27l-.09-.06c-.13-.1-.25-.2-.38-.31l-.09-.08-.09-.08c-.07-.07-.15-.14-.22-.21-.03-.04-.07-.07-.1-.11l-.26-.29c-.09-.1-.13-.16-.19-.24l-.05-.07s-.03-.04-.04-.06-.02-.04 0-.06Zm.21.13c.21.3.45.58.71.84.28.24.57.46.89.65s.04.01.06 0c.08-.05.15-.11.22-.17l.02-.02c.42-.38 1.75-2.42 2.78-4.07.02-.03.01-.07-.01-.09l-.52-.48s-.06-.02-.09 0c-1.59 1.13-3.54 2.6-3.89 3.03l-.02.02c-.06.07-.11.15-.15.23v.06Zm1.07.46c.14.12.29.21.45.28s.04-.01.06-.03c.06-.05.12-.1.17-.15h.01c.43-.42 2.08-2.68 2.4-3.13 0 0 .01-.02.02-.03l-.28-.26s-.02 0-.03.02c-.43.35-2.57 2.14-2.95 2.6h-.01c-.05.07-.1.13-.14.2-.01.02-.02.04-.02.07.09.16.2.31.33.44Zm4.54 2.21c.37-.03.73-.08 1.09-.17l-.58-.48c-.17.06-.34.1-.52.12h-.01c-.18 0-.36-.03-.53-.08l-.55.52c.36.06.73.1 1.1.1Zm1.09-.17s.03-.02.04-.04c.02-.09.03-.18.03-.27v-.03c.03-.56-.47-2.95-.91-4.84 0-.03-.04-.06-.07-.06l-.15.52s0 .02.01.03c.09.55.52 3.3.5 3.9v.02c0 .08 0 .15-.02.23 0 .02 0 .05-.02.06l.58.48Zm-1.05-4.72.15-.52-.71.02.17.52.39-.02Zm-1.14 4.79.55-.52s-.03-.04-.03-.06a.908.908 0 0 1-.03-.23c-.05-.58.21-3.36.26-3.92v-.03l-.17-.52s-.06.03-.07.06c-.32 1.92-.67 4.33-.61 4.89v.03c0 .09.03.18.05.27 0 .02.03.03.05.04Zm-.24.05c.04-1.29.49-4.72.6-5.36a.18.18 0 0 1 .16-.14l.82-.03c.08 0 .15.05.17.13.15.64.81 4.04.93 5.32 0 .02-.01.04-.03.04l-.47.09c-.04 0-.07.01-.11.02-.16.02-.32.04-.48.05h-.69c-.13 0-.26-.01-.39-.02s-.21-.02-.31-.03h-.09s-.05-.02-.07-.02-.04-.01-.05-.03Zm.24-.06c.36.06.73.1 1.1.1.37-.03.73-.08 1.09-.17s.03-.02.04-.04c.02-.09.03-.18.03-.27v-.03c.03-.56-.47-2.95-.91-4.84 0-.03-.04-.06-.07-.06l-.71.02s-.06.03-.07.06c-.32 1.92-.67 4.33-.61 4.89v.03c0 .09.03.18.05.27 0 .03.03.05.05.05Zm1.08-.43h.01c.18-.02.35-.05.52-.12s.02-.04.02-.06c.01-.08.02-.15.02-.23v-.02c.01-.59-.42-3.35-.5-3.9 0-.01 0-.02-.01-.03h-.38v.04c-.05.55-.31 3.33-.26 3.92v.02c0 .08.02.15.03.23 0 .02.01.05.03.06.17.05.35.08.52.09Zm4.77-1.65c.24-.28.46-.57.65-.89l-.75.07c-.07.16-.17.31-.28.45-.13.13-.28.23-.44.32l-.03.75c.3-.21.58-.44.84-.7Zm.66-.9s.01-.04 0-.06c-.05-.08-.11-.15-.17-.22l-.02-.02c-.38-.42-2.42-1.75-4.07-2.78-.03-.02-.07-.01-.09.01l.27.48s.02 0 .03.01c.45.33 2.7 1.97 3.11 2.4h.01c.05.07.1.12.15.19.02.02.02.04.03.06l.74-.07Zm-4.08-2.6-.27-.48-.48.52.49.24.26-.29Zm2.58 4.19.03-.75s-.05 0-.06-.02a1.33 1.33 0 0 1-.19-.14h-.01c-.45-.39-2.24-2.54-2.6-2.97 0 0-.01-.02-.02-.03l-.49-.24s-.02.06 0 .09c1.13 1.59 2.6 3.54 3.03 3.89l.02.02c.07.06.15.11.23.15.02.01.04.02.06.01Zm-.13.2c-.89-.94-2.99-3.68-3.37-4.22-.04-.07-.04-.15.01-.21l.56-.6c.06-.06.14-.07.21-.03.56.35 3.43 2.28 4.42 3.1.02.01.02.04.01.06-.09.13-.17.27-.27.4l-.06.09c-.1.13-.2.25-.31.38l-.08.09-.08.09c-.07.07-.14.15-.21.22l-.11.1-.29.26c-.1.09-.16.13-.24.2l-.07.05-.06.04s-.04.02-.06 0Zm.13-.22c.3-.21.58-.45.84-.71.24-.28.46-.57.65-.89s.01-.04 0-.06c-.05-.08-.11-.15-.17-.22l-.02-.02c-.38-.42-2.42-1.75-4.07-2.78-.03-.02-.07-.01-.09.01l-.48.52s-.02.06 0 .09c1.13 1.59 2.6 3.54 3.03 3.89l.02.02c.07.06.15.11.23.15h.06Zm.46-1.08c.11-.14.21-.29.28-.45s-.01-.04-.03-.06c-.05-.06-.1-.12-.15-.17h-.01c-.41-.44-2.66-2.09-3.11-2.41 0 0-.02-.01-.03-.01l-.26.28s.01.02.02.03c.35.43 2.14 2.57 2.6 2.95h.01c.06.06.12.11.19.15.02.01.04.02.06.02.16-.08.31-.19.44-.32Zm2.21-4.55c-.02-.37-.08-.73-.16-1.09l-.47.58c.06.17.1.34.12.52 0 .19-.03.37-.08.54l.52.55c.06-.36.09-.73.09-1.1Zm-.17-1.1s-.02-.03-.04-.04c-.09-.02-.18-.03-.27-.03h-.02c-.57-.03-2.95.47-4.84.91-.03 0-.06.04-.06.07l.53.15s.02-.01.03-.01c.55-.08 3.31-.52 3.9-.5h.02c.08 0 .16 0 .23.02.02 0 .04 0 .06.02l.47-.58Zm-4.72 1.05-.53-.15.02.71.52-.17v-.39Zm4.77 1.14-.52-.55s-.04.03-.06.03c-.08.02-.15.03-.23.03h-.02c-.59.05-3.37-.21-3.92-.26h-.03l-.52.17s.03.06.06.07c1.92.32 4.33.67 4.9.61h.02c.09 0 .18-.02.27-.05.02 0 .04 0 .06-.03Zm.05.23c-1.29-.04-4.72-.49-5.36-.6a.162.162 0 0 1-.14-.16l-.03-.82c0-.08.05-.15.13-.17.64-.15 4.03-.81 5.32-.93.02 0 .04.01.05.03.03.16.07.31.09.47 0 .03.01.07.01.11.02.16.04.32.05.48v.69c0 .13-.01.26-.02.39s-.02.21-.03.31c0 .03 0 .06-.01.09v.07h-.01s0 .05-.03.06Zm-.05-.25c.06-.36.1-.73.1-1.1-.02-.37-.08-.73-.16-1.09s-.02-.03-.04-.04c-.09-.02-.18-.03-.27-.03h-.02c-.57-.03-2.95.47-4.84.91-.03 0-.06.04-.06.07l.02.71s.03.06.06.07c1.92.32 4.33.67 4.9.61h.02c.09 0 .18-.02.27-.05.02 0 .04-.02.04-.04Zm-.43-1.09c-.02-.19-.06-.36-.12-.53s-.04-.02-.06-.02c-.08-.01-.15-.02-.23-.02h-.02c-.59-.01-3.35.42-3.9.5-.01 0-.02 0-.03.01v.38h.04c.55.05 3.33.31 3.92.26h.02c.08 0 .15-.01.23-.03.02 0 .05-.01.06-.03.05-.17.08-.35.09-.52Zm-5.8-1.12-1.09.03-.75.79.03 1.09.8.75 1.09-.03.75-.8-.03-1.09-.79-.75Zm-.69-4.87c-3.43.11-6.11 2.98-6 6.4s2.98 6.11 6.4 6a6.202 6.202 0 0 0 6-6.4 6.207 6.207 0 0 0-6.4-5.99v-.02Zm.17 5.32c-.49.01-.87.42-.86.91.01.49.42.87.91.86s.87-.42.86-.91a.89.89 0 0 0-.92-.85Z"/><path id="nlq-back" class="cls-27" d="M76.09 22.43v.08s0 .01-.01.01h-.06s-.01 0-.01-.01v-.08s0-.01.01-.01h.06s.01 0 .01.01Zm.11-.1s0-.01-.01-.01h-.06s-.01 0-.01.01v.17s0 .01.01.01h.06s.01 0 .01-.01v-.17Zm.04.19h.06s.01 0 .01-.01v-.42s0-.01-.01-.01h-.06s-.01 0-.01.01v.42s0 .01.01.01Zm.11 0h.06s.01 0 .01-.01v-.52s-.01-.07-.03-.11-.01 0-.02 0c-.02.03-.03.07-.03.11v.53Zm.29-.21h-.07s-.01 0-.01.01v.17s0 .01.01.01h.06s.01 0 .01-.01V22.31Zm-.17.21h.06s.01 0 .01-.01v-.42s0-.01-.01-.01h-.06s-.01 0-.01.01v.42s0 .01.01.01Zm.28-.1h-.06s-.01 0-.01.01v.08s0 .01.01.01h.06s.01 0 .01-.01v-.09Zm-.37.13s-.08.03-.08.08.01.1.02.15c.01.06.03.12.06.12s.08-.23.08-.28c0-.04-.03-.08-.08-.08Zm-.1.08s0-.05.02-.07-.02 0-.03 0c-.04 0-.07.03-.07.07s.03.22.07.22.02-.02.03-.05l-.03-.17Zm.21-.08h-.03s.02.04.02.06c0 .05-.01.11-.02.16 0 .03.02.05.03.05.04 0 .07-.19.07-.22s-.04-.06-.07-.05Z"/></g><g id="back-wheel" class="car-wheel"><path class="cls-22" d="M25.1 22.63c.14 4.27-3.21 7.84-7.48 7.98s-7.84-3.21-7.98-7.48c-.14-4.27 3.21-7.84 7.48-7.98 4.27-.13 7.84 3.22 7.97 7.48Z"/><circle class="cls-4" cx="17.37" cy="22.87" r="7.04"/><circle class="cls-21" cx="17.37" cy="22.87" r="5.15"/><path id="back-tire" class="cls-23" d="M22.03 17.88c-.28-.24-.57-.46-.89-.65l.07.75c.16.07.31.17.45.28.13.14.23.29.32.44l.75.03c-.21-.3-.44-.59-.7-.85Zm-.89-.66s-.04-.01-.06 0c-.08.05-.15.11-.22.17l-.02.02c-.42.38-1.75 2.42-2.78 4.07-.02.03-.01.07.01.09l.48-.27s0-.02.01-.03c.33-.45 1.97-2.7 2.4-3.11h.01c.05-.07.11-.12.17-.16.02-.02.04-.02.06-.03l-.07-.74Zm-2.6 4.08-.48.27.52.48.24-.49-.29-.26Zm4.19-2.58-.75-.03s0 .05-.02.06c-.04.07-.09.13-.14.19h-.01c-.38.46-2.53 2.25-2.95 2.61 0 0-.02.01-.03.02l-.24.49s.06.03.09 0c1.59-1.13 3.54-2.6 3.89-3.03l.02-.02c.06-.07.11-.15.15-.23.01-.02.02-.05 0-.07Zm.21.13c-.94.89-3.68 2.99-4.22 3.37-.07.04-.15.04-.21-.01l-.6-.56a.168.168 0 0 1-.03-.21c.35-.56 2.28-3.43 3.1-4.42.01-.02.04-.02.06-.01.13.09.27.17.4.27l.09.07c.13.1.25.2.38.31l.09.08.09.08c.07.07.15.14.22.21l.1.11.26.29c.09.1.13.16.2.24l.05.07.04.06s.02.04 0 .06Zm-.21-.13c-.21-.3-.45-.58-.71-.84-.28-.24-.57-.46-.89-.65s-.04-.01-.06 0c-.08.05-.15.11-.22.17l-.02.02c-.42.38-1.75 2.42-2.78 4.07-.02.03-.01.07.01.09l.52.48s.06.03.09 0c1.59-1.13 3.54-2.6 3.89-3.03l.02-.02c.06-.07.11-.15.15-.23.01-.02 0-.05 0-.07Zm-1.06-.46c-.14-.12-.29-.22-.45-.29s-.04.01-.06.03c-.06.05-.12.1-.17.15h-.01c-.43.42-2.08 2.68-2.4 3.13 0 0-.01.02-.01.03l.28.26s.02-.01.03-.02c.43-.35 2.57-2.14 2.95-2.6h.01c.05-.07.1-.13.14-.2.01-.02.02-.04.02-.06-.09-.16-.2-.31-.33-.43Zm-9.29-.05c-.24.27-.46.57-.65.88l.75-.07c.07-.16.17-.31.28-.45.13-.13.28-.23.44-.32l.03-.75c-.3.21-.59.44-.85.7Zm-.66.89s-.01.04 0 .06c.05.08.11.15.17.22l.02.02c.38.42 2.42 1.76 4.07 2.79.03.02.07.01.09-.01l-.27-.48s-.02 0-.03-.02c-.45-.33-2.7-1.97-3.11-2.4h-.01l-.15-.18-.03-.06-.74.07Zm4.08 2.6.27.48.48-.52-.49-.24-.26.28Zm-2.58-4.19-.03.75s.05 0 .06.02c.06.04.13.09.19.14h.01c.45.39 2.24 2.54 2.6 2.97 0 0 .01.02.02.03l.49.24s.03-.06 0-.09c-1.13-1.59-2.6-3.54-3.03-3.89l-.02-.02c-.07-.06-.15-.11-.23-.15-.02-.01-.04-.02-.07 0Zm.13-.2c.89.94 2.99 3.68 3.37 4.22.04.07.04.15-.01.21l-.56.6c-.06.06-.14.07-.21.03-.56-.35-3.43-2.28-4.42-3.1-.02-.01-.02-.04-.01-.05.09-.13.17-.27.27-.4a.55.55 0 0 1 .07-.09c.1-.13.2-.25.31-.38.03-.03.05-.06.08-.09l.08-.09c.07-.07.14-.15.21-.22l.11-.1.29-.26c.1-.09.16-.13.24-.19l.07-.05.06-.04s.04-.02.06 0Zm-.13.21c-.3.21-.58.45-.84.71-.24.27-.46.57-.65.88s-.01.04 0 .06c.05.08.11.15.17.22l.02.02c.38.42 2.42 1.76 4.07 2.79.03.02.07.01.09-.01l.48-.52s.03-.06 0-.09c-1.13-1.59-2.6-3.54-3.03-3.89l-.02-.02c-.07-.06-.15-.11-.23-.15a.085.085 0 0 0-.07 0Zm-.46 1.07c-.11.14-.21.29-.28.45s.01.04.03.06c.05.06.1.12.15.17h.01c.41.44 2.66 2.09 3.11 2.41 0 0 .02.01.03.02l.26-.28s0-.02-.02-.03c-.35-.43-2.14-2.57-2.6-2.96h-.01a.896.896 0 0 0-.19-.15c-.02-.01-.04-.02-.06-.02-.16.09-.31.2-.44.33Zm4.38-2.52c-.37.02-.73.08-1.09.17l.58.47c.17-.06.34-.1.52-.12h.01c.18 0 .36.03.53.08l.55-.51c-.36-.07-.73-.1-1.11-.1Zm-1.09.17s-.03.02-.04.04c-.02.09-.03.18-.03.27v.02c-.03.57.47 2.95.91 4.84 0 .03.04.06.07.06l.15-.53s-.01-.02-.01-.03c-.08-.55-.52-3.31-.5-3.9v-.02c0-.08 0-.15.02-.23 0-.02 0-.04.02-.06l-.58-.47Zm1.05 4.72-.15.53.71-.02-.17-.52h-.39Zm1.14-4.77-.55.51s.03.04.03.06c.02.08.03.15.03.23v.02c.05.59-.21 3.37-.26 3.92v.03l.17.52s.06-.03.07-.06c.32-1.92.67-4.33.61-4.9v-.02c0-.09-.02-.18-.05-.27 0-.02-.02-.04-.05-.05Zm.24-.05c-.04 1.29-.49 4.72-.6 5.36-.01.08-.08.14-.16.14l-.82.03c-.08 0-.15-.05-.17-.13-.15-.64-.81-4.03-.93-5.32 0-.02.01-.04.03-.05.16-.03.31-.07.47-.09h.11c.16-.04.32-.05.48-.06h.69c.13 0 .26.01.39.02s.21.02.31.03h.09l.07.02s.04.01.05.03Zm-.24.06c-.36-.06-.73-.1-1.1-.1-.37.02-.73.08-1.09.17s-.03.02-.04.04c-.02.09-.03.18-.03.27v.02c-.03.57.47 2.95.91 4.84 0 .03.04.06.07.06l.71-.02s.06-.03.07-.06c.32-1.92.67-4.33.61-4.9v-.02c0-.09-.02-.18-.05-.27 0-.03-.02-.05-.05-.05Zm-1.08.43h-.01c-.18.02-.35.06-.52.12s-.02.04-.02.06c-.01.08-.02.15-.02.23v.02c-.01.59.42 3.35.5 3.9 0 .01 0 .02.01.03h.38v-.04c.05-.55.31-3.33.26-3.92v-.02c0-.08-.01-.15-.03-.23 0-.02-.01-.05-.03-.06-.17-.05-.35-.08-.52-.09Zm-6.6 6.54c.02.37.08.73.17 1.09l.47-.58c-.06-.17-.1-.34-.12-.52 0-.19.03-.37.08-.54l-.51-.54c-.07.36-.1.73-.1 1.1Zm.17 1.09s.02.03.04.04c.09.02.18.03.27.03h.02c.57.03 2.95-.47 4.84-.91.03 0 .06-.04.06-.07l-.53-.14s-.02 0-.03.01c-.55.09-3.31.52-3.9.5h-.02c-.08 0-.15 0-.23-.02-.02 0-.04-.01-.06-.02l-.47.58Zm4.72-1.05.53.14-.02-.7-.52.17v.39Zm-4.78-1.14.51.55s.04-.03.06-.03c.08-.02.15-.03.23-.03h.02c.59-.05 3.37.21 3.92.26.01 0 .02 0 .03.01l.52-.17s-.03-.06-.06-.07c-1.92-.32-4.33-.67-4.9-.6h-.02c-.09 0-.18.03-.27.05-.02 0-.04.02-.04.04Zm-.05-.24c1.29.04 4.72.49 5.36.6.08.01.14.08.14.16l.03.82c0 .08-.05.15-.13.17-.64.15-4.04.81-5.32.93-.02 0-.04-.01-.05-.03l-.09-.47c0-.04-.01-.07-.01-.11-.02-.16-.04-.32-.05-.48v-.69c0-.13.01-.26.02-.39s.02-.21.03-.31c0-.03 0-.06.01-.09v-.07h.01s.01-.04.03-.05Zm.05.24c-.06.36-.1.73-.1 1.1.02.37.08.73.17 1.09s.02.03.04.04c.09.02.18.03.27.03h.02c.57.03 2.95-.47 4.84-.91.03 0 .06-.04.06-.07l-.02-.7s-.03-.06-.06-.07c-1.92-.32-4.33-.67-4.9-.6h-.02c-.09 0-.18.03-.27.05-.03.02-.04.03-.04.05Zm.43 1.08c.02.19.05.37.12.53s.04.02.06.02c.08.01.15.02.23.02h.02c.59.01 3.35-.42 3.9-.5.01 0 .02 0 .03-.01v-.38s-.03 0-.04-.01c-.55-.05-3.33-.31-3.92-.26h-.02c-.08 0-.15.02-.23.03-.02 0-.04.01-.06.03-.05.17-.08.35-.09.53Zm1.64 4.77c.28.24.57.46.89.65l-.07-.75c-.16-.07-.31-.17-.45-.28-.12-.13-.23-.28-.32-.44l-.75-.03c.21.3.44.58.7.84Zm.89.66s.04.01.06 0c.08-.05.15-.11.22-.17l.02-.02c.42-.38 1.76-2.42 2.79-4.07.02-.03.01-.07-.01-.09l-.48.27s0 .02-.02.03c-.33.45-1.97 2.7-2.4 3.11l-.02.02c-.05.05-.11.11-.17.15l-.06.03.08.74Zm2.6-4.08.48-.27-.52-.48-.24.49.28.26Zm-4.19 2.58.75.03s0-.05.02-.07c.04-.06.09-.13.14-.18h.01c.38-.47 2.53-2.25 2.96-2.61 0 0 .02-.01.03-.02l.24-.49s-.06-.02-.09 0c-1.59 1.13-3.54 2.6-3.89 3.03l-.02.02c-.06.07-.11.15-.15.23-.01.02-.02.04 0 .06Zm-.21-.13c.94-.89 3.68-2.99 4.22-3.38.07-.04.15-.04.21.02l.6.56c.06.06.07.14.03.21-.35.56-2.28 3.43-3.1 4.42-.01.02-.04.02-.05.01-.13-.08-.27-.17-.4-.27l-.08-.06c-.13-.1-.25-.2-.38-.31l-.09-.08-.09-.08c-.07-.07-.15-.14-.22-.21-.03-.04-.07-.07-.1-.11l-.26-.29c-.09-.1-.13-.16-.19-.24-.02-.02-.04-.05-.05-.07s-.03-.04-.04-.06-.02-.04 0-.06Zm.21.13c.21.3.45.58.71.84.28.24.57.46.89.65s.04.01.06 0c.08-.05.15-.11.22-.17l.02-.02c.42-.38 1.76-2.42 2.79-4.07.02-.03.01-.07-.01-.09l-.52-.48s-.06-.02-.09 0c-1.59 1.13-3.54 2.6-3.89 3.03l-.02.02c-.06.07-.11.15-.15.23-.01.02-.01.04 0 .06Zm1.06.46c.14.11.29.21.45.28s.04-.01.06-.03c.06-.05.12-.1.17-.15h.01c.43-.42 2.08-2.68 2.4-3.13 0 0 .01-.02.02-.03l-.28-.26s-.02 0-.03.02c-.43.35-2.57 2.14-2.96 2.6h-.01c-.05.07-.1.13-.14.2-.01.02-.02.04-.02.07.09.16.2.31.33.44Zm4.54 2.21c.37-.03.73-.08 1.09-.17l-.58-.48c-.17.06-.34.1-.52.12h-.01c-.18 0-.36-.03-.53-.08l-.55.51c.36.07.73.1 1.11.1Zm1.1-.17s.03-.02.04-.04c.02-.09.03-.18.03-.27v-.03c.03-.56-.47-2.94-.91-4.84 0-.03-.04-.06-.07-.06l-.14.53s0 .02.01.03c.09.55.52 3.3.5 3.9v.02c0 .08 0 .15-.02.23 0 .02-.01.05-.02.06l.58.47Zm-1.05-4.72.14-.53-.7.02.17.52h.39Zm-1.14 4.77.55-.51s-.03-.04-.03-.06a.908.908 0 0 1-.03-.23v-.02c-.05-.59.21-3.37.26-3.92v-.03l-.17-.52s-.06.03-.07.06c-.32 1.92-.67 4.33-.6 4.89v.03c0 .09.03.18.05.27 0 .03.02.05.05.05Zm-.24.05c.04-1.29.49-4.72.6-5.36a.18.18 0 0 1 .16-.14l.82-.03c.08 0 .15.05.17.13.15.64.81 4.04.93 5.32 0 .02-.01.04-.03.04l-.47.09c-.04 0-.07.01-.11.02-.16.02-.32.04-.48.05h-.69c-.13 0-.26-.01-.39-.02s-.21-.02-.31-.03h-.09l-.07-.02s-.04-.01-.05-.03Zm.24-.06c.36.06.73.1 1.1.1.37-.03.73-.08 1.09-.17s.03-.02.04-.04c.02-.09.03-.18.03-.27v-.03c.03-.56-.47-2.94-.91-4.84 0-.03-.04-.06-.07-.06l-.7.02s-.06.03-.07.06c-.32 1.92-.67 4.33-.6 4.89v.03c0 .09.03.18.05.27 0 .03.03.05.05.06Zm1.08-.43h.01c.18-.01.35-.05.52-.12s.02-.04.02-.06c.01-.08.02-.15.02-.23v-.02c.01-.59-.42-3.35-.5-3.9 0-.01 0-.02-.01-.03h-.39v.04c-.05.55-.31 3.33-.26 3.92v.02c0 .08.02.15.03.23 0 .02.01.04.03.06.17.05.35.08.53.09Zm4.77-1.65c.24-.28.46-.57.65-.89l-.75.07c-.07.16-.17.31-.28.45-.13.13-.28.23-.44.32l-.03.75c.3-.21.58-.44.84-.7Zm.66-.9s.01-.04 0-.06c-.05-.08-.11-.15-.17-.22l-.02-.02c-.38-.42-2.42-1.75-4.07-2.78-.03-.02-.07-.01-.09.01l.27.48s.02 0 .03.01c.45.33 2.7 1.97 3.11 2.4h.01c.05.07.1.12.15.19.02.02.02.04.03.06l.74-.07Zm-4.08-2.6-.27-.48-.48.52.49.24.26-.29Zm2.58 4.19.03-.75s-.05 0-.07-.02c-.06-.04-.13-.09-.18-.14h-.01c-.45-.39-2.24-2.54-2.6-2.97 0 0-.01-.02-.02-.03l-.49-.24s-.02.06 0 .09c1.13 1.59 2.6 3.54 3.03 3.89l.02.02c.07.06.15.11.23.15.02.01.04.02.06.01Zm-.13.2c-.89-.94-2.99-3.68-3.38-4.22-.04-.07-.04-.15.01-.21l.56-.6c.06-.06.14-.07.21-.03.56.35 3.43 2.28 4.42 3.1.02.01.02.04.01.06-.08.13-.17.27-.27.4l-.06.09c-.1.13-.2.25-.31.38l-.08.09-.08.09c-.07.07-.14.15-.21.22l-.11.1-.29.26c-.1.09-.16.13-.24.19l-.07.05-.06.04s-.04.02-.06.01Zm.13-.22c.3-.21.58-.45.84-.71.24-.28.46-.57.65-.89s.01-.04 0-.06c-.05-.08-.11-.15-.17-.22l-.02-.02c-.38-.42-2.42-1.75-4.07-2.78-.03-.02-.07-.01-.09.01l-.48.52s-.02.06 0 .09c1.13 1.59 2.6 3.54 3.03 3.89l.02.02c.07.06.15.11.23.15.02.01.04.01.06 0Zm.46-1.08c.12-.14.21-.29.28-.45s-.01-.04-.03-.06c-.05-.06-.1-.12-.15-.17h-.01c-.41-.44-2.66-2.09-3.11-2.41 0 0-.02-.01-.03-.01l-.26.28s0 .02.02.03c.35.43 2.14 2.57 2.6 2.95h.01c.06.06.12.11.18.15.02.01.04.02.07.02.16-.08.31-.19.44-.31Zm2.21-4.55c-.02-.37-.08-.73-.16-1.09l-.48.58c.06.17.1.34.12.52 0 .19-.03.37-.08.54l.52.55c.06-.36.09-.73.09-1.09Zm-.17-1.11s-.02-.03-.04-.04c-.09-.02-.18-.03-.27-.03h-.03c-.56-.03-2.94.47-4.84.91-.03 0-.06.04-.06.07l.53.15s.02-.01.03-.01c.55-.08 3.3-.52 3.9-.5h.02c.08 0 .15 0 .23.02.02 0 .05 0 .06.02l.47-.58Zm-4.71 1.06-.53-.14.02.71.52-.17v-.39Zm4.78 1.14-.52-.55s-.04.03-.06.03c-.08.02-.15.03-.23.03h-.01c-.59.05-3.37-.21-3.92-.26h-.03l-.52.17s.03.06.06.07c1.92.32 4.33.67 4.89.61h.04c.09 0 .18-.03.27-.05.01 0 .03-.02.03-.03Zm.05.24c-1.29-.04-4.72-.49-5.36-.6a.18.18 0 0 1-.14-.16l-.03-.82c0-.08.05-.15.13-.17.64-.15 4.04-.81 5.32-.93.02 0 .04.01.04.03l.09.47c0 .04.01.07.02.11.02.16.04.32.05.48v.69c0 .13-.01.26-.02.39s-.02.21-.03.31c0 .03 0 .06-.01.09 0 .02 0 .05-.01.07s-.01.05-.04.05Zm-.05-.25c.06-.36.1-.73.1-1.1-.02-.37-.08-.73-.16-1.09s-.02-.03-.04-.04c-.09-.02-.18-.03-.27-.03h-.03c-.56-.03-2.94.47-4.84.91-.03 0-.06.04-.06.07l.02.71s.03.06.06.07c1.92.32 4.33.67 4.89.61h.03c.09 0 .18-.03.27-.05.02 0 .03-.02.03-.04Zm-.43-1.09a1.86 1.86 0 0 0-.12-.53s-.04-.02-.06-.02c-.08-.01-.15-.02-.23-.02h-.02c-.59-.01-3.35.42-3.9.5-.01 0-.02 0-.03.01v.38h.04c.55.05 3.33.31 3.92.26h.02c.08 0 .15-.01.23-.03.02 0 .05-.01.06-.03.05-.17.08-.35.08-.52Zm-5.8-1.12-1.09.03-.75.79.03 1.09.79.75 1.09-.03.75-.8-.03-1.09-.8-.75Zm-.69-4.87c-3.43.11-6.11 2.98-6 6.4s2.98 6.11 6.4 6a6.202 6.202 0 0 0 6-6.4 6.202 6.202 0 0 0-6.4-6Zm.17 5.31c-.49.02-.87.42-.86.91s.42.87.91.86.87-.42.86-.91a.884.884 0 0 0-.92-.85h.01Z"/><path id="nlq-back-2" class="cls-27" d="M17.08 22.92V23s0 .01-.01.01h-.06s-.01 0-.01-.01v-.08s0-.01.01-.01h.06s.01 0 .01.01Zm.11-.1s0-.01-.01-.01h-.06s-.01 0-.01.01V23s0 .01.01.01h.06s.01 0 .01-.01v-.18Zm.04.19h.06s.01 0 .01-.01v-.42s0-.01-.01-.01h-.07s-.01 0-.01.01V23s0 .01.01.01Zm.11 0h.05s.01 0 .01-.01v-.53s-.01-.07-.03-.11-.02 0-.02 0c-.02.03-.03.07-.03.11V23s0 .01.02.01Zm.28-.21h-.06s-.01 0-.01.01v.18s0 .01.01.01h.06s.01 0 .01-.01v-.18s0-.01-.02-.01Zm-.17.21h.06s.01 0 .01-.01v-.42s0-.01-.01-.01h-.06s-.01 0-.01.01V23s0 .01.01.01Zm.28-.1h-.06s-.01 0-.01.01V23s0 .01.01.01h.07s.01 0 .01-.01v-.08s0-.01-.01-.01Zm-.37.13s-.08.03-.08.08.01.1.02.15c.01.06.03.12.05.12s.08-.23.08-.28c0-.04-.03-.08-.08-.08Zm-.1.08s0-.05.02-.07-.02 0-.03 0c-.04 0-.07.03-.07.07s.03.22.07.22c.01 0 .02-.02.03-.05l-.03-.18Zm.22-.07h-.03s.02.04.02.06c0 .05-.01.11-.02.16s.02.06.03.06c.04 0 .07-.19.07-.22s-.04-.06-.07-.05Z"/></g></g></svg>