<svg xmlns="http://www.w3.org/2000/svg" viewBox="0 0 511.26 512"><defs><style>.cls-1{fill:var(--primary_hl,#767676);}.cls-2{fill:var(--primary, #acacac);}</style></defs><g id="Laag_2" data-name="Laag 2"><g id="Capa_1" data-name="Capa 1"><path class="cls-1" d="M404.27,317.17c-10.48-10.92-23.13-16.75-36.53-16.75s-26,5.72-36.95,16.64l-34.15,34c-2.81-1.52-5.62-2.92-8.32-4.33-3.89-1.94-7.56-3.78-10.7-5.72-32-20.32-61.05-46.79-88.93-81.05-13.51-17.07-22.59-31.44-29.18-46,8.86-8.11,17.07-16.54,25.07-24.64,3-3,6-6.16,9.08-9.19,22.69-22.69,22.69-52.08,0-74.77l-29.5-29.5c-3.35-3.35-6.81-6.81-10-10.27-6.49-6.7-13.29-13.62-20.32-20.1-10.48-10.37-23-15.88-36.2-15.88S71.66,35.13,60.85,45.5l-.22.22L23.89,82.78A79.07,79.07,0,0,0,.44,133c-2.59,31.55,6.7,60.95,13.84,80.18,17.5,47.22,43.65,91,82.66,137.89,47.33,56.51,104.28,101.14,169.33,132.59,24.86,11.78,58,25.72,95.1,28.09,2.27.11,4.65.22,6.81.22,25,0,45.92-9,62.35-26.8.11-.22.32-.32.43-.54,5.62-6.81,12.1-13,18.91-19.56,4.65-4.43,9.4-9.08,14.05-13.94,10.7-11.13,16.32-24.1,16.32-37.39s-5.73-26.26-16.65-37.06ZM443,431c-.1,0-.1.11,0,0-4.21,4.54-8.53,8.65-13.18,13.19a284.61,284.61,0,0,0-20.85,21.61c-10.92,11.67-23.78,17.18-40.64,17.18-1.62,0-3.35,0-5-.11-32.09-2.05-61.92-14.58-84.28-25.28-61.17-29.61-114.87-71.65-159.5-124.92C82.68,288.21,58,247.14,41.72,203.05c-10-26.9-13.72-47.87-12.1-67.64a49.6,49.6,0,0,1,14.91-32.1L81.38,66.46c5.3-5,10.92-7.67,16.43-7.67,6.81,0,12.32,4.11,15.77,7.57l.33.32c6.59,6.16,12.86,12.54,19.45,19.34,3.35,3.46,6.81,6.92,10.27,10.48L173.13,126c11.45,11.45,11.45,22,0,33.49-3.14,3.14-6.16,6.27-9.3,9.3-9.07,9.29-17.72,17.94-27.12,26.36-.22.22-.43.33-.54.54-9.29,9.3-7.56,18.38-5.62,24.53l.32,1c7.68,18.58,18.48,36.09,34.91,57l.11.1c29.82,36.74,61.27,65.38,95.95,87.32a147.51,147.51,0,0,0,13.3,7.24c3.89,1.94,7.56,3.78,10.69,5.72.44.22.87.54,1.3.76a23.37,23.37,0,0,0,10.7,2.7c9,0,14.59-5.62,16.42-7.45l37-37c3.68-3.67,9.51-8.11,16.32-8.11s12.21,4.22,15.56,7.89l.22.22,59.54,59.54C454,408.15,454,419.5,443,431Z"/><path class="cls-2" d="M276.32,121.79A139.07,139.07,0,0,1,389.57,235a14.5,14.5,0,0,0,14.37,12.1,20.73,20.73,0,0,0,2.49-.21,14.62,14.62,0,0,0,12-16.86,168.19,168.19,0,0,0-137-137,14.66,14.66,0,0,0-16.85,11.88A14.43,14.43,0,0,0,276.32,121.79Z"/><path class="cls-2" d="M511,225.85A276.89,276.89,0,0,0,285.4.22,14.57,14.57,0,1,0,280.65,29,247.33,247.33,0,0,1,482.29,230.61a14.5,14.5,0,0,0,14.37,12.1,20.91,20.91,0,0,0,2.49-.21A14.32,14.32,0,0,0,511,225.85Z"/></g></g></svg>